<svg width="66" height="66" viewBox="0 0 66 66" fill="none" xmlns="http://www.w3.org/2000/svg">
<rect x="0.5" y="0.5" width="65" height="65" rx="9.5" fill="#36c0fa" stroke="#36c0fa"/>
<path d="M33 16.8916C28.4913 16.8916 24.1672 18.6707 20.9793 21.8377C17.7911 25.0046 16 29.2998 16 33.7782C16 38.2567 17.7911 42.5521 20.9793 45.7188C24.1674 48.8857 28.4915 50.6648 33 50.6648C37.5085 50.6648 41.8328 48.8857 45.0207 45.7188C48.2089 42.5518 50 38.2567 50 33.7782C49.9946 29.3011 48.202 25.0091 45.0151 21.8433C41.8279 18.6777 37.507 16.8969 33 16.8916ZM33 49.2579C28.8669 49.2579 24.9031 47.627 21.9807 44.724C19.0581 41.8209 17.4163 37.8839 17.4163 33.7781C17.4163 29.6724 19.0581 25.7352 21.9807 22.8323C24.9032 19.9292 28.8667 18.2983 33 18.2983C37.1333 18.2983 41.0969 19.9292 44.0193 22.8323C46.9419 25.7354 48.5837 29.6724 48.5837 33.7781C48.579 37.882 46.9356 41.8166 44.0143 44.7183C41.0927 47.6201 37.1317 49.2526 33.0006 49.2573L33 49.2579Z" fill="white"/>
<path d="M34.375 34.0786C34.3972 33.98 34.4086 33.8794 34.4089 33.7783C34.4079 33.282 34.141 32.8237 33.7084 32.5752V25.311C33.7084 24.9225 33.3913 24.6074 33.0001 24.6074C32.6089 24.6074 32.2918 24.9225 32.2918 25.311V32.5752C31.9316 32.7816 31.6824 33.1363 31.6109 33.543C31.5391 33.9498 31.6527 34.3672 31.9208 34.6829C32.189 34.9987 32.5843 35.1802 33.0001 35.1786C33.1395 35.1758 33.2777 35.1519 33.4102 35.1083L37.4307 39.1019C37.5629 39.2376 37.7441 39.3149 37.9341 39.3168C38.1242 39.3183 38.3066 39.2439 38.441 39.1107C38.5754 38.9772 38.6504 38.7956 38.6485 38.6069C38.6469 38.4181 38.5691 38.2381 38.4325 38.1068L34.375 34.0786Z" fill="white"/>
<path d="M33.0001 19.7061C29.2428 19.7061 25.6394 21.1887 22.983 23.8279C20.3261 26.4667 18.8335 30.0461 18.8335 33.7782C18.8335 37.5103 20.3261 41.0898 22.983 43.7285C25.6396 46.3677 29.2429 47.8503 33.0001 47.8503C36.7573 47.8503 40.3609 46.3677 43.0173 43.7285C45.6742 41.0897 47.1668 37.5103 47.1668 33.7782C47.1623 30.0472 45.6685 26.4703 43.0126 23.8327C40.3569 21.1944 36.7561 19.7106 33.0003 19.7062L33.0001 19.7061ZM33.0001 46.4434C29.6185 46.4434 26.3756 45.109 23.9844 42.734C21.5934 40.3587 20.2501 37.1375 20.2501 33.7784C20.2501 30.4194 21.5934 27.1981 23.9844 24.8228C26.3757 22.4478 29.6186 21.1134 33.0001 21.1134C36.3817 21.1134 39.6247 22.4478 42.0159 24.8228C44.4068 27.1981 45.7502 30.4194 45.7502 33.7784C45.7464 37.1363 44.4018 40.3553 42.0114 42.73C39.6211 45.1047 36.3804 46.44 32.9997 46.4438L33.0001 46.4434Z" fill="white"/>
</svg>
