<svg width="66" height="66" viewBox="0 0 66 66" fill="none" xmlns="http://www.w3.org/2000/svg">
<rect x="0.5" y="0.5" width="65" height="65" rx="9.5" fill="#3d77da" stroke="#3d77da"/>
<path d="M53.8229 33.4259L48.0356 19.0655C47.6373 18.076 46.5481 17.6129 45.611 18.0338L42.9718 19.2174C42.5187 19.4205 42.167 19.7994 41.9816 20.2828C41.7963 20.7669 41.8005 21.2967 41.9937 21.7746L42.1344 22.1233C39.5951 23.0867 38.1701 23.4918 34.5693 22.9527C33.5668 22.8026 32.1121 23.2011 30.0458 24.1982C29.9624 24.1655 29.8719 24.1494 29.7774 24.1569C28.316 24.2762 27.3215 23.858 25.1418 22.9407C24.7262 22.7658 24.2702 22.5744 23.7673 22.3676L24.0064 21.7746C24.1992 21.2967 24.2038 20.7669 24.0185 20.2825C23.8331 19.7984 23.4814 19.4201 23.0283 19.2171L20.3891 18.0335C19.9353 17.8304 19.4334 17.8259 18.9748 18.0214C18.5159 18.2169 18.1573 18.588 17.9648 19.0659L12.1772 33.4254C11.9844 33.9033 11.9798 34.4334 12.1651 34.9175C12.3505 35.4016 12.7022 35.7799 13.1553 35.9829L15.7945 37.1665C16.03 37.272 16.2743 37.3218 16.5154 37.3218C17.127 37.3218 17.7126 36.9971 18.0583 36.4443C18.1745 36.5233 18.2762 36.5927 18.3612 36.6505C18.8152 36.959 18.8152 36.959 18.9507 37.1088C19.0559 37.2253 19.2175 37.4032 19.5373 37.7241L18.9875 38.7284C18.7097 39.2365 18.6364 39.8302 18.7807 40.3995C18.9256 40.9688 19.2706 41.4444 19.7517 41.7374L19.909 41.8333C20.2943 42.0676 20.721 42.1576 21.1353 42.1191C21.1448 42.2603 21.1672 42.4015 21.2031 42.5414C21.3474 43.1107 21.6923 43.5862 22.1741 43.88L22.3314 43.9758C22.8131 44.2689 23.3759 44.3462 23.9156 44.194C23.9179 44.1936 23.9209 44.1926 23.9231 44.1919C23.9235 44.1943 23.9244 44.1974 23.9254 44.2005C24.0697 44.7698 24.4146 45.2453 24.8964 45.5391L25.0537 45.6349C25.6703 46.0105 26.4487 45.916 27.0944 45.5676C27.2686 45.9637 27.5565 46.3083 27.9415 46.543L28.0988 46.6389C28.4272 46.8385 28.7854 46.9333 29.1395 46.9333C29.556 46.9333 29.9638 46.7979 30.3107 46.552L31.5801 47.5301C32.5663 48.2901 33.4363 48.6711 34.1793 48.6711C34.49 48.6711 34.7783 48.6041 35.0437 48.4712C35.7394 48.1214 36.0772 47.4089 36.243 46.788C36.5655 46.9131 36.8928 46.978 37.212 46.978C37.5931 46.978 37.9637 46.888 38.3035 46.7045C39.0415 46.3063 39.5262 45.5373 39.6714 44.5895C39.7402 44.5946 39.8082 44.6049 39.8773 44.6049C40.4372 44.6049 41.0079 44.4472 41.4912 44.1304C42.2543 43.6299 42.681 42.8283 42.7286 41.8687C42.8234 41.8793 42.9181 41.8924 43.0146 41.8924C43.1566 41.8924 43.2996 41.8807 43.4429 41.8574C44.1643 41.7388 44.7975 41.3327 45.2255 40.7143C45.6538 40.0962 45.8284 39.3362 45.7157 38.5752C45.6766 38.31 45.6024 38.0571 45.4998 37.8197C45.8561 37.6967 46.2131 37.5442 46.5629 37.3243C47.0202 37.0367 47.4358 36.6512 47.8345 36.2472C48.1553 36.9196 48.8021 37.3229 49.4835 37.3229C49.7242 37.3229 49.9695 37.2731 50.2043 37.1676L52.8436 35.984C53.2973 35.7809 53.6487 35.4023 53.8337 34.9179C54.0197 34.4338 54.0158 33.9033 53.823 33.4254L53.8229 33.4259ZM16.2915 35.934L13.6522 34.7504C13.5112 34.6875 13.4021 34.569 13.3441 34.4171C13.2861 34.2649 13.2868 34.0993 13.3464 33.9505L19.134 19.5902C19.1936 19.4418 19.306 19.3263 19.4499 19.2652C19.5209 19.2349 19.5952 19.2198 19.6685 19.2198C19.7444 19.2198 19.82 19.236 19.8916 19.2679L22.5308 20.4515C22.6719 20.5144 22.781 20.6329 22.839 20.7848C22.8969 20.9367 22.8963 21.1026 22.8367 21.2507L17.0501 35.611C16.9257 35.9199 16.5859 36.0649 16.2915 35.9337L16.2915 35.934ZM21.7732 40.207C21.7302 40.2503 21.6928 40.3005 21.6612 40.3571C21.4358 40.7687 20.9352 40.911 20.5443 40.6732L20.3869 40.5774C20.1993 40.4633 20.0645 40.2768 20.0078 40.0531C19.9511 39.8294 19.9791 39.5972 20.0879 39.3993L21.5953 36.6452C21.7035 36.4473 21.8803 36.3051 22.0924 36.2453C22.1637 36.225 22.2363 36.2151 22.3077 36.2151C22.4487 36.2151 22.5878 36.2539 22.7122 36.3298L22.8695 36.4253C23.0571 36.5401 23.1916 36.726 23.2487 36.9496C23.3053 37.1733 23.2773 37.4056 23.1685 37.6035C23.1255 37.6818 23.0995 37.766 23.0884 37.8501C23.0259 37.9336 22.9682 38.0226 22.9167 38.1171L21.7732 40.207ZM24.2643 42.2898C24.193 42.3437 24.1307 42.4145 24.0838 42.4997C23.9757 42.6976 23.7988 42.8398 23.5868 42.8996C23.3748 42.9594 23.1543 42.9292 22.967 42.8151L22.8096 42.7196C22.622 42.6048 22.4875 42.419 22.4305 42.1953C22.3738 41.9716 22.4018 41.7394 22.5106 41.5415L24.018 38.7874C24.1692 38.5109 24.445 38.3563 24.7281 38.3563C24.8662 38.3563 25.0069 38.3934 25.1349 38.4714L25.2922 38.5672C25.4798 38.6813 25.6147 38.8678 25.6714 39.0915C25.728 39.3152 25.7 39.5474 25.5912 39.7453C25.5447 39.8309 25.5179 39.9223 25.5091 40.0143L24.2643 42.2898ZM27.1778 43.5339C27.1028 43.6706 27.0432 43.8129 26.9989 43.9575C26.7192 44.3853 26.0137 44.6718 25.6903 44.4742L25.5329 44.3787C25.3453 44.264 25.2108 44.0781 25.1538 43.8544C25.0971 43.6308 25.1251 43.3985 25.2339 43.2006L26.7413 40.4466C26.8925 40.17 27.1677 40.0154 27.4507 40.0154C27.5895 40.0154 27.7295 40.0525 27.8582 40.1309L28.0155 40.2267C28.4057 40.4645 28.5406 40.9932 28.3148 41.4049C28.2842 41.4615 28.2621 41.5203 28.2481 41.5808L27.1778 43.5339ZM28.7353 45.4779L28.578 45.382L28.5777 45.3817C28.2556 45.1855 28.108 44.7918 28.1924 44.4286C28.1963 44.4155 28.1995 44.4025 28.2025 44.3894C28.2207 44.3255 28.2455 44.2633 28.2784 44.2035L29.7858 41.4488C29.8939 41.2509 30.0708 41.1087 30.2828 41.0489C30.4952 40.9884 30.715 41.0187 30.9026 41.1334L31.06 41.2293C31.2476 41.3433 31.3821 41.5299 31.4391 41.7535C31.4958 41.9772 31.4677 42.2095 31.359 42.4074L29.8519 45.1614C29.6265 45.574 29.1259 45.7156 28.7353 45.4779ZM44.1995 39.9237C43.9718 40.2528 43.6334 40.4696 43.2474 40.5329C42.8602 40.5961 42.4765 40.4988 42.1648 40.2583L38.6409 37.5427C38.3569 37.3242 37.9595 37.3895 37.7527 37.6884C37.5459 37.9873 37.6074 38.4065 37.8908 38.6247L41.4147 41.3403C41.4232 41.3468 41.433 41.3513 41.4417 41.3578C41.5385 42.0941 41.3274 42.6589 40.8203 42.9918C40.2682 43.3543 39.4699 43.357 39.005 42.9984L35.9909 40.6758C35.7069 40.4573 35.3095 40.5229 35.1027 40.8215C34.8959 41.1204 34.9575 41.5396 35.2408 41.7578L38.2549 44.0803C38.3136 44.1257 38.3794 44.1593 38.4416 44.1985C38.3931 44.8077 38.1341 45.2897 37.725 45.5099C37.2739 45.7532 36.6957 45.6477 36.1385 45.2179L34.0784 43.6306C33.7943 43.412 33.397 43.4777 33.1902 43.7762C32.9833 44.0751 33.0449 44.4943 33.3283 44.7125L35.093 46.072C35.02 46.5681 34.8379 47.0873 34.4966 47.2587C34.0631 47.4769 33.2934 47.1872 32.3296 46.4455L31.1238 45.5161L32.4593 43.0761C32.7371 42.568 32.8111 41.9743 32.6661 41.4046C32.5218 40.8353 32.1763 40.3598 31.6951 40.0667L31.5378 39.9712C31.0558 39.6778 30.493 39.6002 29.9532 39.7527C29.7793 39.8018 29.6148 39.873 29.4624 39.9637C29.2855 39.5991 29.0103 39.282 28.65 39.0632L28.4927 38.9677C27.9921 38.6626 27.4192 38.6018 26.9009 38.7512C26.9006 38.7488 26.8996 38.7461 26.899 38.7437C26.754 38.1744 26.4091 37.6988 25.928 37.4058L25.7707 37.3099C25.3854 37.0753 24.9574 36.9849 24.5444 37.0241C24.5349 36.8829 24.5124 36.7417 24.4766 36.6018C24.3323 36.0325 23.9874 35.557 23.5056 35.2632L23.3483 35.1677C22.8666 34.8743 22.3044 34.7967 21.764 34.9496C21.2243 35.1024 20.7735 35.4663 20.4957 35.9744L20.1921 36.5282C20.0374 36.3678 19.94 36.2609 19.8713 36.185C19.6316 35.9191 19.5762 35.8813 19.0495 35.5236C18.9293 35.4422 18.7769 35.3388 18.5922 35.2117L23.2707 23.6017C23.7847 23.8123 24.2486 24.0074 24.671 24.1851C26.0996 24.7863 27.1158 25.211 28.1249 25.402C27.8347 25.7071 27.577 26.0599 27.2995 26.4423L27.2223 26.5488C26.8438 27.07 26.1354 28.03 25.638 28.6068C25.5455 28.714 25.4618 28.8064 25.3859 28.8899C25.0707 29.2376 24.7974 29.5382 24.6821 30.0825C24.5433 30.7363 24.6391 31.6828 25.1648 32.3219C25.6175 32.8733 26.4328 33.2028 27.3028 33.1994C28.0738 33.198 28.6646 32.9245 29.4242 32.4524C29.557 32.37 29.6987 32.2786 29.8476 32.1824C30.4984 31.7632 31.309 31.2417 32.1047 31.0105C34.9411 30.1876 38.9676 33.6251 41.9064 36.1356C42.6236 36.7482 43.3011 37.3268 43.8831 37.7755C44.1952 38.0157 44.4007 38.3727 44.4606 38.7798C44.5202 39.1886 44.4281 39.5944 44.1997 39.9236L44.1995 39.9237ZM45.9118 36.1729C45.5216 36.4182 45.088 36.5625 44.6301 36.693C44.0731 36.2639 43.409 35.6963 42.7051 35.0954C39.5519 32.4022 35.2326 28.7126 31.7661 29.7196C30.7978 30.0006 29.9037 30.5771 29.1845 31.0399C29.0415 31.132 28.9057 31.2193 28.778 31.2986C28.0953 31.723 27.7361 31.8597 27.2997 31.86H27.2954C26.799 31.86 26.329 31.6938 26.1242 31.445C25.9134 31.1887 25.8548 30.6905 25.9216 30.3762C25.9564 30.2109 26.016 30.1343 26.3033 29.8179C26.3857 29.7268 26.4766 29.6265 26.5772 29.5097C27.1062 28.8961 27.8401 27.9025 28.2302 27.3647L28.3084 27.2565C28.7634 26.6281 29.092 26.1742 29.5516 25.9331C31.8853 24.7048 33.514 24.1489 34.3901 24.2801C38.3253 24.87 39.9256 24.389 42.6316 23.36L47.2939 34.9296C46.8245 35.4209 46.3773 35.8803 45.9116 36.173L45.9118 36.1729ZM52.6554 34.4169C52.5977 34.5687 52.4883 34.6873 52.3472 34.7501L49.708 35.9337C49.4145 36.0653 49.0742 35.9207 48.9501 35.6111L43.1628 21.2508C43.1032 21.1023 43.1019 20.9367 43.1605 20.7849C43.2185 20.633 43.3276 20.5145 43.4686 20.4516L46.1079 19.268C46.1818 19.2354 46.258 19.2192 46.3333 19.2192C46.558 19.2192 46.773 19.3584 46.8665 19.5903L52.6531 33.9506C52.7127 34.0997 52.7137 34.265 52.6554 34.4169Z" fill="white"/>
</svg>
