<svg width="94" height="94" viewBox="0 0 94 94" fill="none" xmlns="http://www.w3.org/2000/svg">
<rect x="46.6689" width="66" height="66" rx="10" transform="rotate(45 46.6689 0)" fill="#36c0fa"/>
<path d="M50.8279 53.7339C50.882 53.5951 50.9131 53.4588 50.9425 53.3295L50.9436 53.3247L50.9437 53.3248L50.9446 53.3198C51.1037 52.4098 50.6921 51.3194 49.4238 50.9212L49.4232 50.921L43.4201 49.0796C43.42 49.0796 43.4199 49.0796 43.4198 49.0795C41.8561 48.5883 40.6416 48.5494 39.5208 48.7727C38.4471 48.9865 37.4633 49.4405 36.3514 49.9537C36.307 49.9742 36.2623 49.9948 36.2175 50.0155L36.2175 50.0155L36.2155 50.0164C35.6098 50.3119 34.9836 50.6071 34.2718 50.9022C33.9323 51.0304 33.8076 51.3891 33.9337 51.709L33.9332 51.7092L33.9377 51.7179C34.0881 52.0123 34.4458 52.1698 34.7613 52.0176C35.4908 51.7124 36.1402 51.407 36.708 51.14C36.7316 51.1289 36.755 51.1178 36.7783 51.1069L36.7783 51.1069L36.779 51.1066C37.9087 50.5656 38.8072 50.138 39.7597 49.9505C40.7075 49.7638 41.7143 49.8142 43.0559 50.2439L43.0566 50.2442L49.0373 52.1065C49.4091 52.2345 49.5758 52.4505 49.6491 52.6493C49.7246 52.8538 49.7047 53.05 49.6861 53.1322L49.686 53.1322L49.6854 53.1352C49.6037 53.5536 49.3054 53.9644 48.7866 53.9644H48.7649L48.7615 53.9644C48.7313 53.9644 48.6912 53.9644 48.6526 53.9712C48.6224 53.9766 48.5891 53.9867 48.5575 54.0068H48.5481C46.4662 54.0068 44.119 53.3992 41.027 51.9211L41.0271 51.9211L41.0245 51.92C40.8813 51.8563 40.71 51.8512 40.5593 51.8972C40.4091 51.943 40.2688 52.0434 40.1999 52.2017C40.0478 52.5028 40.1735 52.8828 40.4884 53.0129C44.7684 55.0494 47.84 55.5275 50.6139 55.0412C53.3493 54.5618 55.7837 53.1453 58.7855 51.3988L58.8941 51.3357L58.8947 51.3353C59.0671 51.2334 59.2403 51.1306 59.4151 51.0269C60.0759 50.6349 60.7579 50.2303 61.4941 49.8122L61.4949 49.8117C62.1528 49.4303 62.6991 49.5727 62.9982 49.748L62.9981 49.748L63.0007 49.7494C63.5083 50.0272 63.8373 50.6059 63.8373 51.2069C63.8373 51.5591 63.6991 52.0722 63.0644 52.4322C56.251 56.2719 51.8825 58.0073 48.7943 58.7027C45.7117 59.3967 43.9015 59.0555 42.1947 58.7285L42.1947 58.7285C41.1437 58.5275 40.1158 58.3351 38.8825 58.3564C37.6489 58.3778 36.2141 58.6128 34.3433 59.2605C33.9821 59.3628 33.8299 59.7188 33.9304 60.0405C33.9306 60.041 33.9308 60.0416 33.9309 60.0421L50.8279 53.7339ZM50.8279 53.7339C53.2029 53.2019 55.3991 51.9236 58.2076 50.2535L58.2088 50.2528C58.4886 50.0917 58.7688 49.9279 59.0534 49.7617C59.6264 49.4269 60.2168 49.082 60.8545 48.728L60.855 48.7277C61.7717 48.2254 62.7612 48.2237 63.594 48.6635L63.597 48.6651L63.5969 48.6651C64.5151 49.1901 65.0995 50.1537 65.0995 51.2072C65.0995 52.159 64.5546 52.9935 63.6629 53.5159L63.6615 53.5167C56.6896 57.4556 52.1713 59.2391 48.9411 59.9513C45.7056 60.6646 43.7662 60.302 41.9622 59.9624L41.9618 59.9623C40.9754 59.7717 40.0255 59.5938 38.8937 59.6122C37.7627 59.6306 36.4458 59.8451 34.731 60.4454L34.715 60.451H34.698H34.5246H34.22L34.2785 60.408L50.8279 53.7339Z" fill="white" stroke="white" stroke-width="0.2"/>
<path d="M35.1658 59.8275L35.166 59.8275V59.8217V51.4606C35.166 50.6624 34.4902 50.006 33.6788 50.006H29.3872C28.5767 50.006 27.9 50.6402 27.9 51.4606V59.8217C27.9 60.64 28.5313 61.2763 29.3872 61.2763H33.6788C34.4954 61.2763 35.1197 60.6158 35.1658 59.8275ZM29.1403 51.4611C29.1403 51.3533 29.2408 51.2436 29.3872 51.2436H33.6788C33.7993 51.2436 33.904 51.3492 33.904 51.4611V59.8222C33.904 59.8862 33.8748 59.9462 33.8284 59.9914C33.781 60.0377 33.7237 60.0609 33.6788 60.0609H29.3872C29.245 60.0609 29.1403 59.9552 29.1403 59.8222V51.4611Z" fill="white" stroke="white" stroke-width="0.2"/>
<path d="M29.7848 53.6624C29.7848 54.6099 30.5915 55.3712 31.5321 55.3712C32.4939 55.3712 33.3011 54.6104 33.3011 53.6624C33.3011 52.7141 32.4936 51.9537 31.5321 51.9537C30.5911 51.9537 29.7848 52.7153 29.7848 53.6624ZM31.0468 53.6839C31.0468 53.4238 31.2599 53.2123 31.5321 53.2123C31.8284 53.2123 32.0391 53.4261 32.0391 53.6839C32.0391 53.9652 31.826 54.1767 31.5321 54.1767C31.2623 54.1767 31.0468 53.9675 31.0468 53.6839Z" fill="white" stroke="white" stroke-width="0.2"/>
<path d="M49.0685 47.836H49.4222L49.3379 47.7842C49.3514 47.7769 49.365 47.7687 49.3785 47.7593C49.3818 47.7579 49.3854 47.7564 49.3894 47.7548C49.4156 47.7442 49.4559 47.7278 49.5008 47.6859C52.6588 45.4065 55.0943 42.9495 56.6569 40.5276C58.22 38.105 58.9147 35.7094 58.5736 33.5602C58.2649 31.6004 57.0714 30.1292 55.3434 29.5233L55.3431 29.5232C53.3689 28.8379 51.0836 29.4506 49.0031 31.1601C46.9223 29.4508 44.6595 28.8802 42.7293 29.5228L42.7289 29.523C40.9979 30.1082 39.8711 31.5816 39.5626 33.5177C39.2214 35.6563 39.9163 38.0573 41.4876 40.4905C43.0568 42.9205 45.5051 45.3909 48.6909 47.6789C48.7146 47.7114 48.7439 47.7285 48.7644 47.7385C48.7701 47.7413 48.7756 47.7437 48.7794 47.7454L48.7796 47.7456L48.7867 47.7488L48.7889 47.7509L48.7971 47.7563C48.878 47.809 48.9619 47.836 49.0685 47.836ZM43.1188 30.7068L43.1188 30.7068L43.1219 30.7056C43.4744 30.5717 43.8481 30.5268 44.2477 30.522L44.2478 30.5222H44.322C45.6765 30.5222 47.1489 31.184 48.5238 32.4637L48.5347 32.4739L48.5481 32.4804C48.5903 32.501 48.6293 32.5201 48.6891 32.559L48.6887 32.5597L48.6998 32.5651C48.7257 32.5777 48.7674 32.5951 48.8083 32.6093C48.829 32.6165 48.8509 32.6235 48.8715 32.6287C48.8903 32.6335 48.9151 32.6387 48.9388 32.6387C49.0704 32.6387 49.1742 32.588 49.2194 32.5659L49.2212 32.5651L49.2215 32.5658L49.2318 32.559C49.2585 32.5417 49.2858 32.5282 49.3133 32.5148L49.3146 32.5142C49.3271 32.508 49.3413 32.5011 49.3537 32.4943C49.3651 32.488 49.3824 32.4778 49.3975 32.4634C51.2466 30.763 53.2679 30.152 54.8888 30.7071L54.8893 30.7072C56.1713 31.1384 57.0595 32.247 57.2931 33.7814L57.2932 33.7817C57.3988 34.4625 57.4709 36.0722 56.4475 38.2963C55.4286 40.5108 53.321 43.3398 49.0686 46.4687C44.7836 43.3186 42.6599 40.4841 41.6329 38.2642C40.6017 36.0353 40.6736 34.4204 40.7794 33.7177C41.0131 32.2245 41.8589 31.1375 43.1188 30.7068Z" fill="white" stroke="white" stroke-width="0.2"/>
<path d="M42.3631 37.2297C42.3672 37.2259 42.371 37.222 42.3745 37.2177C42.7003 37.1251 42.8895 36.8132 42.8152 36.4961C42.5166 35.0782 42.7985 33.8284 43.566 33.0986C44.2109 32.5097 45.1083 32.2827 46.0981 32.509L46.0999 32.5094C46.4584 32.5844 46.7684 32.3585 46.846 32.0553L46.846 32.0553L46.8468 32.0519C46.924 31.7001 46.7146 31.3942 46.3809 31.319L46.3809 31.319L46.3798 31.3187C44.9652 31.0165 43.6509 31.3392 42.7132 32.2547C41.642 33.2795 41.2276 34.9685 41.6011 36.7707L41.6009 36.7707L41.6027 36.7773C41.6601 36.9828 41.8204 37.1645 42.0227 37.2385L41.9897 37.2741H42.219L42.2204 37.2741C42.2315 37.2741 42.2648 37.2742 42.2974 37.2651C42.3147 37.2603 42.3404 37.2507 42.3631 37.2297Z" fill="white" stroke="white" stroke-width="0.2"/>
<path d="M50.7812 44.1741H51.0038L50.9755 44.1422C51.0552 44.1147 51.1318 44.0689 51.2126 44.0031L51.2126 44.0032L51.2145 44.0016C52.9762 42.4938 54.3074 40.9609 55.16 39.4235L55.1601 39.4233C55.338 39.1011 55.2352 38.7442 54.927 38.5686L54.927 38.5685L54.924 38.567C54.5875 38.3898 54.2307 38.5458 54.0569 38.8126L54.0566 38.8124L54.0528 38.8195C53.2805 40.2442 52.0333 41.6741 50.3921 43.0871C50.1094 43.3141 50.1075 43.7146 50.3124 43.9457C50.4221 44.1017 50.606 44.1741 50.7812 44.1741Z" fill="white" stroke="white" stroke-width="0.2"/>
</svg>
