<svg width="66" height="66" viewBox="0 0 66 66" fill="none" xmlns="http://www.w3.org/2000/svg">
<rect x="0.5" y="0.5" width="65" height="65" rx="9.5" fill="#3d77da" stroke="#3d77da"/>
<g clip-path="url(#clip0_1719_10755)">
<path d="M31.2793 39.078C31.2793 39.723 30.7568 40.2465 30.1107 40.2465C24.9562 40.2465 20.7621 36.0524 20.7621 30.8979C20.7621 30.2529 21.2846 29.7294 21.9307 29.7294C22.5768 29.7294 23.0993 30.2529 23.0993 30.8979C23.0993 34.7647 26.244 37.9094 30.1107 37.9094C30.7568 37.9094 31.2793 38.4329 31.2793 39.078ZM49.8703 50.6575C49.6423 50.8855 49.3434 51 49.0442 51C48.745 51 48.4458 50.8855 48.2181 50.6575L39.156 41.5961C36.7114 43.6656 33.5573 44.9208 30.1113 44.9208C22.3786 44.9208 16.0884 38.6303 16.0884 30.8979C16.0881 23.1653 22.3786 16.875 30.1113 16.875C37.8439 16.875 44.1341 23.1655 44.1341 30.8979C44.1341 34.3441 42.879 37.4992 40.8084 39.944L49.8705 49.0054C50.3275 49.4624 50.3275 50.2008 49.8705 50.6578L49.8703 50.6575ZM30.1107 42.5837C36.5543 42.5837 41.7965 37.3415 41.7965 30.8979C41.7965 24.4544 36.5543 19.2122 30.1107 19.2122C23.6671 19.2122 18.425 24.4544 18.425 30.8979C18.425 37.3415 23.6671 42.5837 30.1107 42.5837Z" fill="white"/>
</g>
<defs>
<clipPath id="clip0_1719_10755">
<rect width="35" height="35" fill="white" transform="translate(16 16)"/>
</clipPath>
</defs>
</svg>
