<svg width="94" height="94" viewBox="0 0 94 94" fill="none" xmlns="http://www.w3.org/2000/svg">
<rect x="46.6689" width="66" height="66" rx="10" transform="rotate(45 46.6689 0)" fill="#1CE783"/>
<path d="M58.5792 32.5084C58.6995 32.5565 58.8259 32.5792 58.9504 32.5792C59.2268 32.5792 59.4983 32.4647 59.7004 32.2502L61.9597 29.8533C62.2156 29.5818 62.3227 29.1961 62.2458 28.8204C62.1695 28.4454 61.9213 28.1414 61.583 28.0063L60.4857 27.5711L60.074 26.4069C59.9469 26.0472 59.6594 25.7854 59.3053 25.7045C58.9559 25.6244 58.5896 25.7366 58.3332 26.0081L56.0747 28.4042C55.7819 28.7149 55.6862 29.1817 55.832 29.5933V29.5941L56.3428 31.0367L55.79 31.6229C53.4423 29.3536 50.3318 27.9562 46.9132 27.9562C39.6298 27.9562 33.7031 34.2429 33.7031 41.9714C33.7031 46.7052 35.932 50.8897 39.3289 53.4283L37.074 58.8552C36.9057 59.2622 36.9419 59.7268 37.1702 60.0982C37.3982 60.4693 37.784 60.6904 38.2005 60.6904H41.0206C41.5107 60.6904 41.9543 60.3869 42.1529 59.9129L43.9349 55.6146C44.8933 55.8502 45.8868 55.9865 46.9118 55.9865C47.9384 55.9865 48.9325 55.8494 49.8921 55.6131L51.6757 59.916C51.8745 60.3869 52.3178 60.6904 52.8075 60.6904H55.6221C56.0441 60.6904 56.4321 60.4658 56.6601 60.0892C56.887 59.7158 56.9179 59.2518 56.7474 58.8552L54.498 53.4261C57.8935 50.8869 60.1219 46.7031 60.1219 41.971C60.1219 38.3415 58.804 35.0409 56.6623 32.5486L57.2131 31.9642L58.5792 32.5084ZM59.0144 27.137L59.4283 28.3093C59.4908 28.4859 59.6222 28.6258 59.7891 28.6922L60.8945 29.132L58.907 31.24L57.5402 30.6958L57.0268 29.245L59.0144 27.137ZM41.0212 59.3803L38.2038 59.3826L40.3832 54.1382C41.1258 54.589 41.9123 54.964 42.7359 55.2563L41.0212 59.3803ZM55.6222 59.3803L52.8048 59.3854L51.093 55.2547C51.9166 54.9622 52.7031 54.5867 53.4457 54.1359L55.6222 59.3803ZM58.8879 41.9708C58.8879 48.9764 53.5157 54.6763 46.9129 54.6763C40.3103 54.6763 34.9379 48.9757 34.9379 41.9708C34.9379 34.9652 40.3093 29.2654 46.9129 29.2654C49.9915 29.2654 52.7939 30.515 54.9175 32.5484L53.3919 34.1669C51.6607 32.5476 49.3969 31.5554 46.9128 31.5554C41.5001 31.5554 37.0955 36.2272 37.0955 41.9711C37.0955 47.7136 41.4989 52.3854 46.9128 52.3854C52.3262 52.3854 56.7288 47.7136 56.7288 41.9711C56.7288 39.3335 55.7925 36.9294 54.2641 35.0925L55.7896 33.4739C57.7084 35.7279 58.8874 38.7018 58.8874 41.9709L58.8879 41.9708ZM48.973 41.9708C48.973 43.1759 48.0484 44.1568 46.9125 44.1568C45.7767 44.1568 44.8527 43.1759 44.8527 41.9708C44.8527 40.7657 45.7769 39.7855 46.9125 39.7855C47.2542 39.7855 47.5719 39.8824 47.8558 40.0394L46.027 41.9797C45.7858 42.2356 45.7858 42.65 46.027 42.9052C46.1473 43.0329 46.3054 43.097 46.4636 43.097C46.6216 43.097 46.7792 43.0329 46.9003 42.9052L48.7303 40.9637C48.8802 41.2661 48.9729 41.6053 48.9729 41.9708L48.973 41.9708ZM48.7605 39.0793C48.2332 38.6985 47.5973 38.4754 46.9125 38.4754C45.0961 38.4754 43.6186 40.043 43.6186 41.9701C43.6186 43.8979 45.0961 45.4655 46.9125 45.4655C48.7296 45.4655 50.2072 43.8979 50.2072 41.9701C50.2072 41.2414 49.9947 40.5653 49.6339 40.0043L51.18 38.3639C51.9253 39.3545 52.3741 40.6069 52.3741 41.97C52.3741 45.1648 49.9238 47.7645 46.9125 47.7645C43.9013 47.7645 41.4509 45.1648 41.4509 41.97C41.4509 38.7752 43.9013 36.1755 46.9125 36.1755C48.1954 36.1755 49.374 36.6505 50.3067 37.4389L48.7605 39.0793ZM51.1862 36.5069C50.0257 35.4834 48.5359 34.8665 46.9125 34.8665C43.2199 34.8665 40.216 38.0533 40.216 41.9711C40.216 45.8888 43.2199 49.075 46.9125 49.075C50.6052 49.075 53.609 45.8881 53.609 41.9711C53.609 40.2467 53.0261 38.6646 52.0593 37.4326L53.3925 36.0181C54.6988 37.6162 55.4957 39.6944 55.4957 41.9707C55.4957 46.9921 51.6457 51.076 46.9134 51.076C42.1805 51.076 38.3312 46.9914 38.3312 41.9707C38.3312 36.9494 42.1812 32.8655 46.9134 32.8655C49.0571 32.8655 51.0145 33.7093 52.5201 35.0925L51.1862 36.5069Z" fill="white"/>
</svg>
