<svg width="94" height="94" viewBox="0 0 94 94" fill="none" xmlns="http://www.w3.org/2000/svg">
<rect x="46.6689" width="66" height="66" rx="10" transform="rotate(45 46.6689 0)" fill="#3d77da"/>
<path d="M49.7185 47.2395C50.6264 45.3854 52.1792 43.9921 54.0346 43.3483L54.0376 43.3482L54.1021 43.3265C55.9843 42.6922 58.0267 42.8748 59.7841 43.8369L59.7842 43.837C61.543 44.7998 62.8776 46.4679 63.487 48.4828L63.4872 48.4833C64.0976 50.493 63.9209 52.6784 62.9989 54.5468L62.9984 54.5478C62.0789 56.4219 60.5008 57.8247 58.6176 58.4585L58.6175 58.4586C56.7355 59.0922 54.6934 58.9092 52.9359 57.9474C51.1818 56.9855 49.8515 55.3203 49.2455 53.3094L49.2454 53.3094C48.6394 51.2987 48.8102 49.1152 49.7185 47.2395ZM59.7233 44.7239L59.4892 44.5959C57.6342 43.5816 55.437 43.5394 53.5478 44.4822C51.6608 45.4239 50.3044 47.2363 49.8625 49.3764L49.8625 49.3765C49.421 51.5161 49.9403 53.7554 51.276 55.4381L51.6285 55.1583L51.276 55.4381C52.613 57.1225 54.6198 58.0602 56.7103 57.9612L56.7103 57.9612C58.8005 57.8617 60.7183 56.7381 61.9069 54.9363L61.907 54.9362C63.0946 53.1356 63.4238 50.8568 62.8038 48.7667L62.8034 48.7655C62.2927 47.0611 61.194 45.62 59.7233 44.731V44.7239ZM48.8147 53.4392L48.8147 53.4392L48.8147 53.4392Z" stroke="white" stroke-width="0.9"/>
<path d="M59.9531 52.8845L59.9531 52.8844C60.4502 51.8643 60.5461 50.6737 60.2177 49.5762L59.9531 52.8845ZM59.9531 52.8845C59.4562 53.9045 58.6028 54.6655 57.5872 55.0096L57.5805 55.0119M59.9531 52.8845L57.5805 55.0119M57.5805 55.0119L57.5738 55.0144M57.5805 55.0119L57.5738 55.0144M57.5738 55.0144L57.4503 55.0607C56.4463 55.3534 55.3743 55.2256 54.4538 54.7007C53.5301 54.1735 52.8264 53.284 52.4983 52.2113L52.4636 52.0804L52.4636 52.0804M57.5738 55.0144L52.4636 52.0804M52.4636 52.0804L52.4628 52.0774M52.4636 52.0804L52.4628 52.0774M52.4628 52.0774C52.1671 50.9915 52.2852 49.8262 52.7892 48.8334L52.7893 48.8333M52.4628 52.0774L52.7893 48.8333M52.7893 48.8333C53.2926 47.8413 54.1383 47.1061 55.1376 46.776L55.1618 46.768M52.7893 48.8333L55.1618 46.768M55.1618 46.768C56.1757 46.4369 57.2717 46.5374 58.219 47.0515C59.1676 47.5745 59.8897 48.48 60.2177 49.5762L55.1618 46.768ZM57.8919 47.8111C57.1075 47.3789 56.19 47.294 55.3446 47.5791C54.4991 47.8595 53.8033 48.4852 53.406 49.3062L53.4057 49.3069C53.012 50.1236 52.9371 51.069 53.1956 51.942L53.1956 51.942L53.1968 51.9459C53.463 52.8154 54.0426 53.5473 54.8196 53.9775L54.8198 53.9777C55.6029 54.4107 56.5204 54.494 57.364 54.2056C58.2069 53.9269 58.8978 53.2996 59.286 52.478C59.6863 51.6633 59.7627 50.7155 59.5001 49.8429C59.2394 48.9762 58.6634 48.2469 57.8893 47.821L57.8919 47.8111Z" stroke="white" stroke-width="0.9"/>
<path d="M48.1759 35.7065L48.1772 35.7063C48.2668 35.6932 48.3546 35.6421 48.4174 35.5541C48.4581 35.497 48.4851 35.4285 48.4951 35.3556L48.4786 35.2295C48.3819 34.4882 48.5399 33.733 48.9268 33.1013C49.2991 32.4614 49.8821 31.9805 50.5724 31.756C51.2273 31.5289 51.9361 31.5435 52.5818 31.7973L48.1759 35.7065ZM48.1759 35.7065C48.0876 35.7196 47.9947 35.6959 47.9167 35.6333L47.635 35.9842M48.1759 35.7065L47.635 35.9842M47.635 35.9842L47.9167 35.6333C47.838 35.5701 47.7798 35.4702 47.7644 35.3517L47.7643 35.3504M47.635 35.9842L47.7643 35.3504M47.7643 35.3504C47.6383 34.4021 47.837 33.439 48.3208 32.6363C48.7937 31.8553 49.499 31.2732 50.3167 30.9795L50.3167 30.9795M47.7643 35.3504L50.3167 30.9795M50.3167 30.9795C51.1329 30.6862 52.0177 30.6952 52.8285 31.0051C53.6192 31.324 54.2935 31.9145 54.7417 32.6897L54.7416 32.6897M50.3167 30.9795L54.7416 32.6897M54.7416 32.6897L54.7439 32.6935M54.7416 32.6897L54.7439 32.6935M54.7439 32.6935C54.8011 32.7904 54.821 32.9111 54.7954 33.027L54.7954 33.027M54.7439 32.6935L54.7954 33.027M54.7954 33.027C54.7699 33.1423 54.7034 33.2346 54.6203 33.2887L54.6202 33.2887M54.7954 33.027L54.6202 33.2887M54.6202 33.2887L54.6183 33.2899M54.6202 33.2887L54.6183 33.2899M54.6183 33.2899C54.5359 33.3441 54.4407 33.3588 54.3518 33.3355C54.263 33.312 54.1777 33.2488 54.1226 33.1491L54.1226 33.1491M54.6183 33.2899L54.1226 33.1491M54.1226 33.1491L54.1198 33.1441M54.1226 33.1491L54.1198 33.1441M54.1198 33.1441C53.7692 32.5285 53.2284 32.0515 52.5818 31.7974L54.1198 33.1441Z" stroke="white" stroke-width="0.9"/>
<path d="M50.0744 51.3465C50.106 51.8254 49.7655 52.2412 49.3138 52.2744M50.0744 51.3465L49.5266 43.2826M50.0744 51.3465L49.6254 51.3761L49.0776 43.3133L49.5266 43.2826M50.0744 51.3465L49.6254 51.377L49.6254 51.3765L49.0776 43.3131L49.5266 43.2826M49.3138 52.2744L47.891 43.4084M49.3138 52.2744C48.8624 52.308 48.4705 51.9467 48.4389 51.4678L49.3138 52.2744ZM49.5266 43.2826C49.4937 42.8033 49.101 42.4432 48.6496 42.478C48.1978 42.5126 47.8585 42.9292 47.891 43.4084M47.891 43.4084L48.34 43.378C48.34 43.3779 48.34 43.3779 48.34 43.3779L47.891 43.4084ZM48.0635 34.384L48.0635 34.384C48.241 34.3708 48.4392 34.5166 48.456 34.7715L48.456 34.7715L48.4563 34.7754L48.5624 36.1939L48.5624 36.1942C48.5793 36.4519 48.3985 36.6307 48.2179 36.644L48.2175 36.644C48.04 36.6572 47.8418 36.5114 47.825 36.2565L47.825 36.2565L47.8247 36.2526L47.7185 34.8323C47.7026 34.5754 47.8828 34.3974 48.0635 34.384Z" stroke="white" stroke-width="0.9"/>
<path d="M54.6462 32.4903L54.6462 32.4903C54.5345 32.2914 54.3162 32.2478 54.1569 32.3485L54.6462 32.4903ZM54.6462 32.4903L54.6474 32.4923M54.6462 32.4903L54.6474 32.4923M54.6474 32.4923L62.7547 46.7457L62.7552 46.7466M54.6474 32.4923L62.7552 46.7466M62.7552 46.7466C62.8766 46.9587 62.8036 47.2257 62.6263 47.3399C62.4667 47.4427 62.2476 47.4002 62.1345 47.2026C62.1345 47.2025 62.1344 47.2024 62.1344 47.2023L54.0244 32.9388C54.0243 32.9385 54.0241 32.9382 54.0239 32.9379M62.7552 46.7466L54.0239 32.9379M54.0239 32.9379C53.9051 32.725 53.9803 32.4603 54.1568 32.3485L54.0239 32.9379Z" stroke="white" stroke-width="0.9"/>
<path d="M50.5019 28.0253C50.8462 28.1615 51.1437 28.4172 51.3435 28.7584C51.4609 28.9704 51.3859 29.2339 51.2097 29.3454L51.4502 29.7256L51.2099 29.3452C51.05 29.4463 50.8319 29.4023 50.7205 29.2038L50.7106 29.1863L50.6993 29.1697C50.592 29.0132 50.4402 28.8893 50.2603 28.8191C50.1243 28.7648 49.9781 28.7475 49.8356 28.7672L49.7549 28.1083L49.3548 28.9844C49.2827 29.0499 49.2226 29.1282 49.1775 29.2152C49.0736 29.3917 49.03 29.597 49.0504 29.7991L49.0588 29.8819C49.0495 30.0993 48.8941 30.2569 48.7291 30.2796L48.7291 30.2796C48.5507 30.3043 48.3445 30.1707 48.3133 29.9161L48.3133 29.9161L48.3129 29.9126C48.2587 29.4974 48.3459 29.0768 48.5552 28.7275L48.5552 28.7275L48.5576 28.7234C48.7649 28.3692 49.0837 28.1152 49.4478 28.0017L49.456 27.9992L49.4641 27.9963C49.8005 27.8773 50.1648 27.8866 50.496 28.023L50.496 28.023L50.5019 28.0253Z" stroke="white" stroke-width="0.9"/>
<path d="M48.3033 29.7129L48.3033 29.7127C48.2846 29.4552 48.4644 29.2742 48.6458 29.2592L48.6458 29.2592C48.8234 29.2446 49.0225 29.3886 49.0412 29.6437C49.0412 29.6437 49.0412 29.6438 49.0412 29.6439L49.2291 32.2461L49.2328 32.246L49.2291 32.2462C49.248 32.5039 49.0684 32.6849 48.8867 32.6998L48.8867 32.6998C48.7095 32.7144 48.5103 32.5704 48.4916 32.3153C48.4915 32.3153 48.4915 32.3152 48.4915 32.3152L48.3033 29.7129Z" stroke="white" stroke-width="0.9"/>
<path d="M50.678 29.1281L50.678 29.1281L51.8595 31.2058L51.8611 31.2086L51.8611 31.2086C51.9735 31.4096 52.1939 31.4544 52.3553 31.3529L52.3555 31.3527C52.5332 31.2411 52.6099 30.9754 52.4913 30.7603L51.2992 28.6855L51.2958 28.6796L51.2958 28.6796C51.2415 28.5816 51.1577 28.5189 51.0706 28.495L51.0701 28.4949C50.9825 28.4708 50.8891 28.4839 50.8082 28.5346L50.678 29.1281ZM50.678 29.1281L50.6773 29.1269M50.678 29.1281L50.6773 29.1269M50.6773 29.1269C50.6213 29.0291 50.6032 28.9081 50.6304 28.7928L50.6304 28.7927M50.6773 29.1269L50.6304 28.7927M50.6304 28.7927C50.6576 28.6772 50.7251 28.5867 50.8082 28.5346L50.6304 28.7927Z" stroke="white" stroke-width="0.9"/>
<path d="M45.5017 38.0883L51.029 40.0386L51.9304 40.3566L51.111 40.8487L51.1025 40.8538C50.9179 40.9646 50.7403 41.0713 50.5638 41.1851C49.7893 41.7122 49.078 42.3383 48.4458 43.0499C48.2969 43.2233 48.3092 43.4993 48.4683 43.6561L48.4715 43.6593L48.4715 43.6593L45.5017 38.0883ZM45.5017 38.0883C45.3198 38.0187 45.1925 37.7832 45.2721 37.542C45.3489 37.3102 45.565 37.2259 45.7343 37.289L45.7343 37.289L45.7409 37.2914L53.3033 39.9759C53.3034 39.976 53.3035 39.976 53.3037 39.9761C53.444 40.0265 53.561 40.1782 53.561 40.3743C53.561 40.569 53.4453 40.7202 53.3058 40.7714C52.487 41.0508 51.7045 41.4357 50.9756 41.9172C50.2407 42.3962 49.5693 42.9746 48.9775 43.638L48.9656 43.6512M45.5017 38.0883L48.9656 43.6512M48.9656 43.6512C48.8972 43.724 48.8106 43.7612 48.7258 43.7641L48.9656 43.6512Z" stroke="white" stroke-width="0.9"/>
<path d="M40.8914 47.6339L40.8916 47.6343C41.849 49.5875 41.8955 51.8992 41.0187 53.8932C40.1413 55.8887 38.4333 57.3492 36.3864 57.8305L36.2834 57.3925L36.3864 57.8305C34.3381 58.3121 32.1989 57.7541 30.6 56.3311L40.8914 47.6339ZM40.8914 47.6339C40.0715 45.9657 38.657 44.7026 36.9511 44.1311L36.8815 44.1078M40.8914 47.6339L36.8815 44.1078M36.8815 44.1078H36.8798M36.8815 44.1078H36.8798M36.8798 44.1078C34.8989 43.4719 32.7523 43.8368 31.0612 45.0944C29.352 46.3655 28.3057 48.3999 28.216 50.5943C28.1263 52.7883 29.0026 54.9097 30.6 56.3311L36.8798 44.1078ZM31.4933 43.8259L31.4963 43.8375C29.741 44.7981 28.4097 46.4642 27.8048 48.4757M31.4933 43.8259L37.1645 43.3196C39.0512 43.9547 40.6316 45.3612 41.5506 47.24C42.4609 49.1171 42.6324 51.3037 42.0249 53.3167C41.4173 55.3293 40.0839 56.9957 38.3266 57.956C36.5705 58.9158 34.5303 59.0958 32.6514 58.4585L32.6508 58.4583C30.7719 57.8239 29.1992 56.4203 28.2866 54.5467L28.2866 54.5467C27.3737 52.6728 27.1998 50.488 27.8048 48.4757M31.4933 43.8259C33.2484 42.869 35.2859 42.6876 37.1644 43.3196L31.4933 43.8259ZM27.8048 48.4757L27.3739 48.3461L27.8048 48.4757Z" stroke="white" stroke-width="0.9"/>
<path d="M36.2214 47.7063L36.2216 47.6837L35.9127 47.5795C35.0707 47.2958 34.1573 47.3787 33.375 47.8066L33.3749 47.8067C32.5939 48.2343 32.0117 48.9681 31.7475 49.8407L31.7475 49.8408C31.4835 50.713 31.5555 51.6603 31.9498 52.4779C32.3449 53.2997 33.0388 53.9271 33.8832 54.2097C34.7264 54.4971 35.6426 54.4166 36.4276 53.9885L36.4276 53.9884C37.212 53.5604 37.7958 52.8241 38.0599 51.9486L38.0604 51.9471C38.3208 51.073 38.2442 50.1252 37.8459 49.309L37.8458 49.3089C37.4967 48.5941 36.923 48.0273 36.2214 47.7063ZM38.4976 48.8998C38.9759 49.8649 39.0878 50.9905 38.8082 52.0422L38.7668 52.1698L38.6846 52.4232C38.3298 53.4141 37.6429 54.2273 36.7602 54.7067L36.7587 54.7076C35.8522 55.2045 34.8057 55.3209 33.825 55.0367L33.7202 54.9937L33.7049 54.9874L33.6892 54.9822C32.6762 54.6505 31.8208 53.9014 31.32 52.8912C30.8227 51.8684 30.7279 50.6754 31.059 49.5769L31.059 49.5768C31.3898 48.4779 32.1166 47.5723 33.0698 47.0518L33.0673 47.042C34.017 46.5317 35.1149 46.4368 36.1287 46.7754C37.1443 47.1186 37.9984 47.8784 38.4965 48.8976L38.4965 48.8976L38.4976 48.8998Z" stroke="white" stroke-width="0.9"/>
<path d="M43.5036 35.352L43.5543 34.9612C43.5883 34.1418 43.3829 33.329 42.9638 32.6371L42.9632 32.6361C42.4905 31.8511 41.7826 31.2664 40.9614 30.972L43.5036 35.352ZM43.5036 35.352C43.4705 35.6069 43.2635 35.7389 43.0847 35.7128L43.5036 35.352ZM42.7611 35.2259L42.7606 35.2294C42.727 35.488 42.899 35.6857 43.0847 35.7128L42.7611 35.2259ZM42.7611 35.2259C42.8955 34.1228 42.4792 33.0172 41.6473 32.3113L41.6472 32.3113M42.7611 35.2259L41.6472 32.3113M41.6472 32.3113C40.8122 31.6031 39.6811 31.4046 38.6682 31.7981L38.6682 31.7981M41.6472 32.3113L38.6682 31.7981M38.6682 31.7981L38.6624 31.8004M38.6682 31.7981L38.6624 31.8004M38.6624 31.8004C38.0213 32.0597 37.4828 32.5312 37.1234 33.1376L37.1233 33.1375M38.6624 31.8004L37.1233 33.1375M37.1233 33.1375L37.1186 33.1458M37.1233 33.1375L37.1186 33.1458M37.1186 33.1458C37.0072 33.3431 36.7899 33.3866 36.6309 33.286L36.6285 33.2845M37.1186 33.1458L36.6285 33.2845M36.6285 33.2845C36.5448 33.2322 36.4768 33.141 36.4496 33.0255L36.6285 33.2845ZM36.4496 33.0255C36.4225 32.9099 36.4409 32.789 36.497 32.6913C36.9549 31.9131 37.6393 31.3226 38.4393 31.0054C39.2524 30.6902 40.1414 30.6783 40.9613 30.972L36.4496 33.0255Z" stroke="white" stroke-width="0.9"/>
<path d="M42.7882 34.7701L42.7882 34.7696C42.7957 34.6497 42.8483 34.5437 42.9256 34.4733C43.0017 34.4042 43.0952 34.3747 43.1848 34.383L43.1931 34.3838L43.2015 34.3842C43.291 34.3892 43.3818 34.4324 43.4506 34.5149L43.7963 34.2269L43.4503 34.5146C43.5197 34.598 43.5581 34.7126 43.5502 34.8324C43.5502 34.8325 43.5501 34.8327 43.5501 34.8329L43.3097 38.2736H43.3086L43.2801 38.6931C43.2628 38.9478 43.0645 39.0931 42.8867 39.0794C42.7054 39.0655 42.5251 38.8859 42.5427 38.6284L42.5429 38.6263L42.7882 34.7701ZM42.0521 45.8136L42.0521 45.8134C42.0609 45.6941 42.1135 45.5896 42.19 45.5202L42.1903 45.5199C42.2655 45.4516 42.3581 45.4216 42.4476 45.4288C42.6292 45.4439 42.8085 45.6248 42.7897 45.8823C42.7897 45.8823 42.7897 45.8823 42.7897 45.8823L42.3808 51.4341L42.3795 51.4516C42.3533 51.6959 42.1592 51.8333 41.9856 51.819C41.804 51.804 41.6244 51.6228 41.6432 51.3657L42.0521 45.8136Z" stroke="white" stroke-width="0.9"/>
<path d="M36.6221 32.4926L36.622 32.4925L28.5028 46.7445C28.5028 46.7446 28.5027 46.7447 28.5026 46.7448C28.3806 46.9606 28.4558 47.2302 28.6352 47.3446L36.6221 32.4926ZM36.6221 32.4926L36.6257 32.486M36.6221 32.4926L36.6257 32.486M36.6257 32.486C36.6792 32.3883 36.7626 32.325 36.8508 32.3003C36.9384 32.276 37.032 32.2888 37.1131 32.3394L37.1132 32.3395M36.6257 32.486L37.1132 32.3395M37.1132 32.3395C37.1968 32.3915 37.2646 32.4825 37.2918 32.5983L37.2918 32.5984M37.1132 32.3395L37.2918 32.5984M37.2918 32.5984C37.319 32.714 37.3005 32.8357 37.2438 32.9335L37.242 32.9367M37.2918 32.5984L37.242 32.9367M37.242 32.9367L29.1346 47.2025L29.1343 47.2031M37.242 32.9367L29.1343 47.2031M29.1343 47.2031C29.0205 47.4041 28.7983 47.4485 28.6353 47.3446L29.1343 47.2031Z" stroke="white" stroke-width="0.9"/>
<path d="M42.532 30.2758L42.5309 30.2756C42.3499 30.2493 42.1807 30.0565 42.2132 29.8017L42.2132 29.8017L42.2139 29.7959C42.2378 29.5862 42.1924 29.3723 42.0818 29.1902L42.0817 29.19C41.9734 29.012 41.8064 28.8737 41.6051 28.8053C41.4092 28.7302 41.1932 28.731 40.9978 28.8079C40.8037 28.8791 40.6462 29.0176 40.5465 29.1915L40.5465 29.1915L40.5445 29.1951C40.4901 29.292 40.4061 29.3543 40.3176 29.378C40.2302 29.4011 40.1366 29.3873 40.0552 29.3355C39.88 29.2229 39.8069 28.9588 39.9263 28.7477L39.9263 28.7477C40.1191 28.4071 40.4118 28.1511 40.7516 28.016L40.7519 28.0159C41.0997 27.8773 41.4799 27.8685 41.8324 27.9906C42.1849 28.1131 42.4933 28.3605 42.703 28.699C42.9113 29.0483 42.9979 29.4676 42.9439 29.8818L42.9402 29.9102L42.9401 29.9387C42.9217 30.0484 42.8662 30.1411 42.7921 30.2012C42.7138 30.2648 42.6203 30.2889 42.532 30.2758Z" stroke="white" stroke-width="0.9"/>
<path d="M42.2148 29.645L42.2148 29.645L42.0148 32.2457C42.0148 32.2459 42.0147 32.2461 42.0147 32.2464C41.9963 32.5037 42.1757 32.6843 42.3572 32.6993L42.2148 29.645ZM42.2148 29.645L42.2149 29.6433M42.2148 29.645L42.2149 29.6433M42.2149 29.6433C42.2237 29.5242 42.2763 29.4197 42.3531 29.3499C42.4286 29.2813 42.5213 29.2514 42.6104 29.2587L42.2149 29.6433ZM42.9529 29.7114C42.9712 29.4544 42.7917 29.2737 42.6105 29.2587L42.9529 29.7114ZM42.9529 29.7114L42.7847 31.8975H42.7829L42.7524 32.3146C42.7337 32.5698 42.5344 32.7139 42.3572 32.6993L42.9529 29.7114Z" stroke="white" stroke-width="0.9"/>
<path d="M39.9583 28.6839L39.9583 28.6839L39.96 28.6809C40.0723 28.48 40.2925 28.4351 40.4543 28.5367C40.6324 28.6488 40.7088 28.915 40.5897 29.1301L39.4092 31.2059L39.4092 31.2059L39.4079 31.2084C39.3529 31.3064 39.2681 31.3688 39.179 31.3919L39.1783 31.3921C39.0911 31.4149 38.9965 31.4006 38.9137 31.3466L38.9137 31.3465L38.9103 31.3444C38.7356 31.2325 38.6615 30.9707 38.778 30.7595L39.9583 28.6839Z" stroke="white" stroke-width="0.9"/>
<path d="M42.8088 43.0657L42.8225 43.0811C42.917 43.2529 42.888 43.4788 42.7519 43.6142L42.7518 43.6144C42.6165 43.7491 42.4171 43.7525 42.2783 43.6242C41.691 42.9692 41.0297 42.3922 40.3089 41.9067L40.309 41.9067L40.3051 41.9042C39.5769 41.4245 38.7928 41.0461 37.9719 40.7789C37.8335 40.7268 37.719 40.5763 37.719 40.3823C37.719 40.1865 37.836 40.0347 37.9766 39.9843C37.9766 39.9843 37.9767 39.9843 37.9768 39.9843L45.5159 37.2907L45.518 37.2899C45.6047 37.2585 45.6993 37.2647 45.7837 37.3097L45.784 37.3098C45.8696 37.3554 45.9424 37.4403 45.9766 37.5529L45.9765 37.5529L45.9785 37.5592C46.014 37.6702 46.006 37.7925 45.9576 37.8958L45.9576 37.8958C45.9094 37.9989 45.8288 38.0687 45.742 38.0994C45.742 38.0994 45.742 38.0994 45.742 38.0994L40.2146 40.0512L39.2911 40.3773L40.1401 40.8656C40.3332 40.9767 40.5084 41.0818 40.6684 41.1925L40.6683 41.1926L40.6723 41.1952C41.4532 41.7237 42.1707 42.3515 42.8088 43.0657Z" stroke="white" stroke-width="0.9"/>
<path d="M42.7107 44.1418H42.7107L48.9834 43.4197C48.9834 43.4197 48.9834 43.4197 48.9834 43.4197C49.0557 43.4964 49.1004 43.6055 49.1004 43.7244C49.1004 43.8435 49.0557 43.9525 48.9836 44.0291C48.9121 44.1048 48.8213 44.1418 48.7328 44.1418L42.7107 44.1418Z" stroke="white" stroke-width="0.9"/>
</svg>
